<svg width="273" height="273" viewBox="0 0 273 273" fill="none" xmlns="http://www.w3.org/2000/svg">
<path d="M8.24349 0H0V8.24349H8.24349V0Z" fill="white"/>
<path d="M16.487 0H8.24349V8.24349H16.487V0Z" fill="white"/>
<path d="M24.7305 0H16.487V8.24349H24.7305V0Z" fill="white"/>
<path d="M32.974 0H24.7305V8.24349H32.974V0Z" fill="white"/>
<path d="M41.2175 0H32.974V8.24349H41.2175V0Z" fill="white"/>
<path d="M49.4609 0H41.2175V8.24349H49.4609V0Z" fill="white"/>
<path d="M57.7044 0H49.4609V8.24349H57.7044V0Z" fill="white"/>
<path d="M90.6784 0H82.4349V8.24349H90.6784V0Z" fill="white"/>
<path d="M98.9219 0H90.6784V8.24349H98.9219V0Z" fill="white"/>
<path d="M107.165 0H98.9219V8.24349H107.165V0Z" fill="white"/>
<path d="M115.409 0H107.165V8.24349H115.409V0Z" fill="white"/>
<path d="M140.139 0H131.896V8.24349H140.139V0Z" fill="white"/>
<path d="M148.383 0H140.139V8.24349H148.383V0Z" fill="white"/>
<path d="M173.113 0H164.87V8.24349H173.113V0Z" fill="white"/>
<path d="M181.357 0H173.113V8.24349H181.357V0Z" fill="white"/>
<path d="M206.087 0H197.844V8.24349H206.087V0Z" fill="white"/>
<path d="M222.574 0H214.331V8.24349H222.574V0Z" fill="white"/>
<path d="M230.818 0H222.574V8.24349H230.818V0Z" fill="white"/>
<path d="M239.061 0H230.818V8.24349H239.061V0Z" fill="white"/>
<path d="M247.305 0H239.061V8.24349H247.305V0Z" fill="white"/>
<path d="M255.548 0H247.305V8.24349H255.548V0Z" fill="white"/>
<path d="M263.792 0H255.548V8.24349H263.792V0Z" fill="white"/>
<path d="M272.035 0H263.792V8.24349H272.035V0Z" fill="white"/>
<path d="M8.24349 8.24349H0V16.487H8.24349V8.24349Z" fill="white"/>
<path d="M57.7044 8.24349H49.4609V16.487H57.7044V8.24349Z" fill="white"/>
<path d="M74.1914 8.24349H65.9479V16.487H74.1914V8.24349Z" fill="white"/>
<path d="M123.652 8.24349H115.409V16.487H123.652V8.24349Z" fill="white"/>
<path d="M131.896 8.24349H123.652V16.487H131.896V8.24349Z" fill="white"/>
<path d="M173.113 8.24349H164.87V16.487H173.113V8.24349Z" fill="white"/>
<path d="M181.357 8.24349H173.113V16.487H181.357V8.24349Z" fill="white"/>
<path d="M197.844 8.24349H189.6V16.487H197.844V8.24349Z" fill="white"/>
<path d="M222.574 8.24349H214.331V16.487H222.574V8.24349Z" fill="white"/>
<path d="M272.035 8.24349H263.792V16.487H272.035V8.24349Z" fill="white"/>
<path d="M8.24349 16.487H0V24.7305H8.24349V16.487Z" fill="white"/>
<path d="M24.7305 16.487H16.487V24.7305H24.7305V16.487Z" fill="white"/>
<path d="M32.974 16.487H24.7305V24.7305H32.974V16.487Z" fill="white"/>
<path d="M41.2175 16.487H32.974V24.7305H41.2175V16.487Z" fill="white"/>
<path d="M57.7044 16.487H49.4609V24.7305H57.7044V16.487Z" fill="white"/>
<path d="M74.1914 16.487H65.9479V24.7305H74.1914V16.487Z" fill="white"/>
<path d="M82.4349 16.487H74.1914V24.7305H82.4349V16.487Z" fill="white"/>
<path d="M90.6784 16.487H82.4349V24.7305H90.6784V16.487Z" fill="white"/>
<path d="M98.9219 16.487H90.6784V24.7305H98.9219V16.487Z" fill="white"/>
<path d="M107.165 16.487H98.9219V24.7305H107.165V16.487Z" fill="white"/>
<path d="M115.409 16.487H107.165V24.7305H115.409V16.487Z" fill="white"/>
<path d="M123.652 16.487H115.409V24.7305H123.652V16.487Z" fill="white"/>
<path d="M140.139 16.487H131.896V24.7305H140.139V16.487Z" fill="white"/>
<path d="M181.357 16.487H173.113V24.7305H181.357V16.487Z" fill="white"/>
<path d="M197.844 16.487H189.6V24.7305H197.844V16.487Z" fill="white"/>
<path d="M222.574 16.487H214.331V24.7305H222.574V16.487Z" fill="white"/>
<path d="M239.061 16.487H230.818V24.7305H239.061V16.487Z" fill="white"/>
<path d="M247.305 16.487H239.061V24.7305H247.305V16.487Z" fill="white"/>
<path d="M255.548 16.487H247.305V24.7305H255.548V16.487Z" fill="white"/>
<path d="M272.035 16.487H263.792V24.7305H272.035V16.487Z" fill="white"/>
<path d="M8.24349 24.7305H0V32.974H8.24349V24.7305Z" fill="white"/>
<path d="M24.7305 24.7305H16.487V32.974H24.7305V24.7305Z" fill="white"/>
<path d="M32.974 24.7305H24.7305V32.974H32.974V24.7305Z" fill="white"/>
<path d="M41.2175 24.7305H32.974V32.974H41.2175V24.7305Z" fill="white"/>
<path d="M57.7044 24.7305H49.4609V32.974H57.7044V24.7305Z" fill="white"/>
<path d="M74.1914 24.7305H65.9479V32.974H74.1914V24.7305Z" fill="white"/>
<path d="M82.4349 24.7305H74.1914V32.974H82.4349V24.7305Z" fill="white"/>
<path d="M90.6784 24.7305H82.4349V32.974H90.6784V24.7305Z" fill="white"/>
<path d="M98.9219 24.7305H90.6784V32.974H98.9219V24.7305Z" fill="white"/>
<path d="M123.652 24.7305H115.409V32.974H123.652V24.7305Z" fill="white"/>
<path d="M131.896 24.7305H123.652V32.974H131.896V24.7305Z" fill="white"/>
<path d="M140.139 24.7305H131.896V32.974H140.139V24.7305Z" fill="white"/>
<path d="M164.87 24.7305H156.626V32.974H164.87V24.7305Z" fill="white"/>
<path d="M222.574 24.7305H214.331V32.974H222.574V24.7305Z" fill="white"/>
<path d="M239.061 24.7305H230.818V32.974H239.061V24.7305Z" fill="white"/>
<path d="M247.305 24.7305H239.061V32.974H247.305V24.7305Z" fill="white"/>
<path d="M255.548 24.7305H247.305V32.974H255.548V24.7305Z" fill="white"/>
<path d="M272.035 24.7305H263.792V32.974H272.035V24.7305Z" fill="white"/>
<path d="M8.24349 32.974H0V41.2175H8.24349V32.974Z" fill="white"/>
<path d="M24.7305 32.974H16.487V41.2175H24.7305V32.974Z" fill="white"/>
<path d="M32.974 32.974H24.7305V41.2175H32.974V32.974Z" fill="white"/>
<path d="M41.2175 32.974H32.974V41.2175H41.2175V32.974Z" fill="white"/>
<path d="M57.7044 32.974H49.4609V41.2175H57.7044V32.974Z" fill="white"/>
<path d="M90.6784 32.974H82.4349V41.2175H90.6784V32.974Z" fill="white"/>
<path d="M115.409 32.974H107.165V41.2175H115.409V32.974Z" fill="white"/>
<path d="M131.896 32.974H123.652V41.2175H131.896V32.974Z" fill="white"/>
<path d="M140.139 32.974H131.896V41.2175H140.139V32.974Z" fill="white"/>
<path d="M164.87 32.974H156.626V41.2175H164.87V32.974Z" fill="white"/>
<path d="M173.113 32.974H164.87V41.2175H173.113V32.974Z" fill="white"/>
<path d="M181.357 32.974H173.113V41.2175H181.357V32.974Z" fill="white"/>
<path d="M189.6 32.974H181.357V41.2175H189.6V32.974Z" fill="white"/>
<path d="M222.574 32.974H214.331V41.2175H222.574V32.974Z" fill="white"/>
<path d="M239.061 32.974H230.818V41.2175H239.061V32.974Z" fill="white"/>
<path d="M247.305 32.974H239.061V41.2175H247.305V32.974Z" fill="white"/>
<path d="M255.548 32.974H247.305V41.2175H255.548V32.974Z" fill="white"/>
<path d="M272.035 32.974H263.792V41.2175H272.035V32.974Z" fill="white"/>
<path d="M8.24349 41.2175H0V49.4609H8.24349V41.2175Z" fill="white"/>
<path d="M57.7044 41.2175H49.4609V49.4609H57.7044V41.2175Z" fill="white"/>
<path d="M74.1914 41.2175H65.9479V49.4609H74.1914V41.2175Z" fill="white"/>
<path d="M82.4349 41.2175H74.1914V49.4609H82.4349V41.2175Z" fill="white"/>
<path d="M98.9219 41.2175H90.6784V49.4609H98.9219V41.2175Z" fill="white"/>
<path d="M123.652 41.2175H115.409V49.4609H123.652V41.2175Z" fill="white"/>
<path d="M148.383 41.2175H140.139V49.4609H148.383V41.2175Z" fill="white"/>
<path d="M156.626 41.2175H148.383V49.4609H156.626L156.626 41.2175Z" fill="white"/>
<path d="M164.87 41.2175H156.626L156.626 49.4609H164.87V41.2175Z" fill="white"/>
<path d="M206.087 41.2175H197.844V49.4609H206.087V41.2175Z" fill="white"/>
<path d="M222.574 41.2175H214.331V49.4609H222.574V41.2175Z" fill="white"/>
<path d="M272.035 41.2175H263.792V49.4609H272.035V41.2175Z" fill="white"/>
<path d="M8.24349 49.4609H0V57.7044H8.24349V49.4609Z" fill="white"/>
<path d="M16.487 49.4609H8.24349V57.7044H16.487V49.4609Z" fill="white"/>
<path d="M24.7305 49.4609H16.487V57.7044H24.7305V49.4609Z" fill="white"/>
<path d="M32.974 49.4609H24.7305V57.7044H32.974V49.4609Z" fill="white"/>
<path d="M41.2175 49.4609H32.974V57.7044H41.2175V49.4609Z" fill="white"/>
<path d="M49.4609 49.4609H41.2175V57.7044H49.4609V49.4609Z" fill="white"/>
<path d="M57.7044 49.4609H49.4609V57.7044H57.7044V49.4609Z" fill="white"/>
<path d="M74.1914 49.4609H65.9479V57.7044H74.1914V49.4609Z" fill="white"/>
<path d="M90.6784 49.4609H82.4349V57.7044H90.6784V49.4609Z" fill="white"/>
<path d="M107.165 49.4609H98.9219V57.7044H107.165V49.4609Z" fill="white"/>
<path d="M123.652 49.4609H115.409V57.7044H123.652V49.4609Z" fill="white"/>
<path d="M140.139 49.4609H131.896V57.7044H140.139V49.4609Z" fill="white"/>
<path d="M156.626 49.4609H148.383V57.7044H156.626V49.4609Z" fill="white"/>
<path d="M173.113 49.4609H164.87V57.7044H173.113V49.4609Z" fill="white"/>
<path d="M189.6 49.4609H181.357V57.7044H189.6V49.4609Z" fill="white"/>
<path d="M206.087 49.4609H197.844V57.7044H206.087V49.4609Z" fill="white"/>
<path d="M222.574 49.4609H214.331V57.7044H222.574V49.4609Z" fill="white"/>
<path d="M230.818 49.4609H222.574V57.7044H230.818V49.4609Z" fill="white"/>
<path d="M239.061 49.4609H230.818V57.7044H239.061V49.4609Z" fill="white"/>
<path d="M247.305 49.4609H239.061V57.7044H247.305V49.4609Z" fill="white"/>
<path d="M255.548 49.4609H247.305V57.7044H255.548V49.4609Z" fill="white"/>
<path d="M263.792 49.4609H255.548V57.7044H263.792V49.4609Z" fill="white"/>
<path d="M272.035 49.4609H263.792V57.7044H272.035V49.4609Z" fill="white"/>
<path d="M98.9219 57.7044H90.6784V65.9479H98.9219V57.7044Z" fill="white"/>
<path d="M107.165 57.7044H98.9219V65.9479H107.165V57.7044Z" fill="white"/>
<path d="M123.652 57.7044H115.409V65.9479H123.652V57.7044Z" fill="white"/>
<path d="M164.87 57.7044H156.626L156.626 65.9479H164.87V57.7044Z" fill="white"/>
<path d="M173.113 57.7044H164.87V65.9479H173.113V57.7044Z" fill="white"/>
<path d="M197.844 57.7044H189.6V65.9479H197.844V57.7044Z" fill="white"/>
<path d="M206.087 57.7044H197.844V65.9479H206.087V57.7044Z" fill="white"/>
<path d="M16.487 65.9479H8.24349V74.1914H16.487V65.9479Z" fill="white"/>
<path d="M24.7305 65.9479H16.487V74.1914H24.7305V65.9479Z" fill="white"/>
<path d="M57.7044 65.9479H49.4609V74.1914H57.7044V65.9479Z" fill="white"/>
<path d="M90.6784 65.9479H82.4349V74.1914H90.6784V65.9479Z" fill="white"/>
<path d="M123.652 65.9479H115.409V74.1914H123.652V65.9479Z" fill="white"/>
<path d="M131.896 65.9479H123.652V74.1914H131.896V65.9479Z" fill="white"/>
<path d="M140.139 65.9479H131.896V74.1914H140.139V65.9479Z" fill="white"/>
<path d="M164.87 65.9479H156.626V74.1914H164.87V65.9479Z" fill="white"/>
<path d="M173.113 65.9479H164.87V74.1914H173.113V65.9479Z" fill="white"/>
<path d="M197.844 65.9479H189.6V74.1914H197.844V65.9479Z" fill="white"/>
<path d="M206.087 65.9479H197.844V74.1914H206.087V65.9479Z" fill="white"/>
<path d="M214.331 65.9479H206.087V74.1914H214.331V65.9479Z" fill="white"/>
<path d="M230.818 65.9479H222.574V74.1914H230.818V65.9479Z" fill="white"/>
<path d="M247.305 65.9479H239.061V74.1914H247.305V65.9479Z" fill="white"/>
<path d="M255.548 65.9479H247.305V74.1914H255.548V65.9479Z" fill="white"/>
<path d="M263.792 65.9479H255.548V74.1914H263.792V65.9479Z" fill="white"/>
<path d="M8.24349 74.1914H0V82.4349H8.24349V74.1914Z" fill="white"/>
<path d="M16.487 74.1914H8.24349V82.4349H16.487V74.1914Z" fill="white"/>
<path d="M24.7305 74.1914H16.487V82.4349H24.7305V74.1914Z" fill="white"/>
<path d="M32.974 74.1914H24.7305V82.4349H32.974V74.1914Z" fill="white"/>
<path d="M49.4609 74.1914H41.2175V82.4349H49.4609V74.1914Z" fill="white"/>
<path d="M82.4349 74.1914H74.1914V82.4349H82.4349V74.1914Z" fill="white"/>
<path d="M90.6784 74.1914H82.4349V82.4349H90.6784V74.1914Z" fill="white"/>
<path d="M107.165 74.1914H98.9219V82.4349H107.165V74.1914Z" fill="white"/>
<path d="M115.409 74.1914H107.165V82.4349H115.409V74.1914Z" fill="white"/>
<path d="M131.896 74.1914H123.652V82.4349H131.896V74.1914Z" fill="white"/>
<path d="M140.139 74.1914H131.896V82.4349H140.139V74.1914Z" fill="white"/>
<path d="M164.87 74.1914H156.626V82.4349H164.87V74.1914Z" fill="white"/>
<path d="M181.357 74.1914H173.113V82.4349H181.357V74.1914Z" fill="white"/>
<path d="M206.087 74.1914H197.844V82.4349H206.087V74.1914Z" fill="white"/>
<path d="M214.331 74.1914H206.087V82.4349H214.331V74.1914Z" fill="white"/>
<path d="M239.061 74.1914H230.818V82.4349H239.061V74.1914Z" fill="white"/>
<path d="M263.792 74.1914H255.548V82.4349H263.792V74.1914Z" fill="white"/>
<path d="M8.24349 82.4349H0V90.6784H8.24349V82.4349Z" fill="white"/>
<path d="M57.7044 82.4349H49.4609V90.6784H57.7044V82.4349Z" fill="white"/>
<path d="M65.9479 82.4349H57.7044V90.6784H65.9479V82.4349Z" fill="white"/>
<path d="M74.1914 82.4349H65.9479V90.6784H74.1914V82.4349Z" fill="white"/>
<path d="M90.6784 82.4349H82.4349V90.6784H90.6784V82.4349Z" fill="white"/>
<path d="M131.896 82.4349H123.652V90.6784H131.896V82.4349Z" fill="white"/>
<path d="M156.626 82.4349H148.383V90.6784H156.626L156.626 82.4349Z" fill="white"/>
<path d="M173.113 82.4349H164.87V90.6784H173.113V82.4349Z" fill="white"/>
<path d="M181.357 82.4349H173.113V90.6784H181.357V82.4349Z" fill="white"/>
<path d="M189.6 82.4349H181.357V90.6784H189.6V82.4349Z" fill="white"/>
<path d="M222.574 82.4349H214.331V90.6784H222.574V82.4349Z" fill="white"/>
<path d="M239.061 82.4349H230.818V90.6784H239.061V82.4349Z" fill="white"/>
<path d="M247.305 82.4349H239.061V90.6784H247.305V82.4349Z" fill="white"/>
<path d="M255.548 82.4349H247.305V90.6784H255.548V82.4349Z" fill="white"/>
<path d="M263.792 82.4349H255.548V90.6784H263.792V82.4349Z" fill="white"/>
<path d="M32.974 90.6784H24.7305V98.9219H32.974V90.6784Z" fill="white"/>
<path d="M49.4609 90.6784H41.2175V98.9219H49.4609V90.6784Z" fill="white"/>
<path d="M65.9479 90.6784H57.7044V98.9219H65.9479V90.6784Z" fill="white"/>
<path d="M156.626 90.6784H148.383V98.9219H156.626V90.6784Z" fill="white"/>
<path d="M173.113 90.6784H164.87V98.9219H173.113V90.6784Z" fill="white"/>
<path d="M189.6 90.6784H181.357V98.9219H189.6V90.6784Z" fill="white"/>
<path d="M214.331 90.6784H206.087V98.9219H214.331V90.6784Z" fill="white"/>
<path d="M230.818 90.6784H222.574V98.9219H230.818V90.6784Z" fill="white"/>
<path d="M255.548 90.6784H247.305V98.9219H255.548V90.6784Z" fill="white"/>
<path d="M24.7305 98.9219H16.487V107.165H24.7305V98.9219Z" fill="white"/>
<path d="M49.4609 98.9219H41.2175V107.165H49.4609V98.9219Z" fill="white"/>
<path d="M57.7044 98.9219H49.4609V107.165H57.7044V98.9219Z" fill="white"/>
<path d="M98.9219 98.9219H90.6784V107.165H98.9219V98.9219Z" fill="white"/>
<path d="M123.652 98.9219H115.409V107.165H123.652V98.9219Z" fill="white"/>
<path d="M140.139 98.9219H131.896V107.165H140.139V98.9219Z" fill="white"/>
<path d="M148.383 98.9219H140.139V107.165H148.383V98.9219Z" fill="white"/>
<path d="M164.87 98.9219H156.626L156.626 107.165H164.87V98.9219Z" fill="white"/>
<path d="M181.357 98.9219H173.113V107.165H181.357V98.9219Z" fill="white"/>
<path d="M189.6 98.9219H181.357V107.165H189.6V98.9219Z" fill="white"/>
<path d="M206.087 98.9219H197.844V107.165H206.087V98.9219Z" fill="white"/>
<path d="M222.574 98.9219H214.331V107.165H222.574V98.9219Z" fill="white"/>
<path d="M239.061 98.9219H230.818V107.165H239.061V98.9219Z" fill="white"/>
<path d="M272.035 98.9219H263.792V107.165H272.035V98.9219Z" fill="white"/>
<path d="M16.487 107.165H8.24349V115.409H16.487V107.165Z" fill="white"/>
<path d="M41.2175 107.165H32.974V115.409H41.2175V107.165Z" fill="white"/>
<path d="M49.4609 107.165H41.2175V115.409H49.4609V107.165Z" fill="white"/>
<path d="M74.1914 107.165H65.9479V115.409H74.1914V107.165Z" fill="white"/>
<path d="M82.4349 107.165H74.1914V115.409H82.4349V107.165Z" fill="white"/>
<path d="M98.9219 107.165H90.6784V115.409H98.9219V107.165Z" fill="white"/>
<path d="M107.165 107.165H98.9219V115.409H107.165V107.165Z" fill="white"/>
<path d="M131.896 107.165H123.652V115.409H131.896V107.165Z" fill="white"/>
<path d="M148.383 107.165H140.139V115.409H148.383V107.165Z" fill="white"/>
<path d="M156.626 107.165H148.383V115.409H156.626L156.626 107.165Z" fill="white"/>
<path d="M173.113 107.165H164.87V115.409H173.113V107.165Z" fill="white"/>
<path d="M189.6 107.165H181.357V115.409H189.6V107.165Z" fill="white"/>
<path d="M197.844 107.165H189.6V115.409H197.844V107.165Z" fill="white"/>
<path d="M214.331 107.165H206.087V115.409H214.331V107.165Z" fill="white"/>
<path d="M222.574 107.165H214.331V115.409H222.574V107.165Z" fill="white"/>
<path d="M239.061 107.165H230.818V115.409H239.061V107.165Z" fill="white"/>
<path d="M247.305 107.165H239.061V115.409H247.305V107.165Z" fill="white"/>
<path d="M255.548 107.165H247.305V115.409H255.548V107.165Z" fill="white"/>
<path d="M263.792 107.165H255.548V115.409H263.792V107.165Z" fill="white"/>
<path d="M272.035 107.165H263.792V115.409H272.035V107.165Z" fill="white"/>
<path d="M8.24349 115.409H0V123.652H8.24349V115.409Z" fill="white"/>
<path d="M16.487 115.409H8.24349V123.652H16.487V115.409Z" fill="white"/>
<path d="M32.974 115.409H24.7305V123.652H32.974V115.409Z" fill="white"/>
<path d="M57.7044 115.409H49.4609V123.652H57.7044V115.409Z" fill="white"/>
<path d="M65.9479 115.409H57.7044V123.652H65.9479V115.409Z" fill="white"/>
<path d="M82.4349 115.409H74.1914V123.652H82.4349V115.409Z" fill="white"/>
<path d="M98.9219 115.409H90.6784V123.652H98.9219V115.409Z" fill="white"/>
<path d="M115.409 115.409H107.165V123.652H115.409V115.409Z" fill="white"/>
<path d="M140.139 115.409H131.896V123.652H140.139V115.409Z" fill="white"/>
<path d="M148.383 115.409H140.139V123.652H148.383V115.409Z" fill="white"/>
<path d="M156.626 115.409H148.383V123.652H156.626V115.409Z" fill="white"/>
<path d="M173.113 115.409H164.87V123.652H173.113V115.409Z" fill="white"/>
<path d="M197.844 115.409H189.6V123.652H197.844V115.409Z" fill="white"/>
<path d="M214.331 115.409H206.087V123.652H214.331V115.409Z" fill="white"/>
<path d="M230.818 115.409H222.574V123.652H230.818V115.409Z" fill="white"/>
<path d="M247.305 115.409H239.061V123.652H247.305V115.409Z" fill="white"/>
<path d="M272.035 115.409H263.792V123.652H272.035V115.409Z" fill="white"/>
<path d="M24.7305 123.652H16.487V131.896H24.7305V123.652Z" fill="white"/>
<path d="M82.4349 123.652H74.1914V131.896H82.4349V123.652Z" fill="white"/>
<path d="M98.9219 123.652H90.6784V131.896H98.9219V123.652Z" fill="white"/>
<path d="M115.409 123.652H107.165V131.896H115.409V123.652Z" fill="white"/>
<path d="M131.896 123.652H123.652V131.896H131.896V123.652Z" fill="white"/>
<path d="M140.139 123.652H131.896V131.896H140.139V123.652Z" fill="white"/>
<path d="M164.87 123.652H156.626L156.626 131.896H164.87V123.652Z" fill="white"/>
<path d="M173.113 123.652H164.87V131.896H173.113V123.652Z" fill="white"/>
<path d="M181.357 123.652H173.113V131.896H181.357V123.652Z" fill="white"/>
<path d="M189.6 123.652H181.357V131.896H189.6V123.652Z" fill="white"/>
<path d="M197.844 123.652H189.6V131.896H197.844V123.652Z" fill="white"/>
<path d="M214.331 123.652H206.087V131.896H214.331V123.652Z" fill="white"/>
<path d="M247.305 123.652H239.061V131.896H247.305V123.652Z" fill="white"/>
<path d="M255.548 123.652H247.305V131.896H255.548V123.652Z" fill="white"/>
<path d="M263.792 123.652H255.548V131.896H263.792V123.652Z" fill="white"/>
<path d="M272.035 123.652H263.792V131.896H272.035V123.652Z" fill="white"/>
<path d="M41.2175 131.896H32.974V140.139H41.2175V131.896Z" fill="white"/>
<path d="M57.7044 131.896H49.4609V140.139H57.7044V131.896Z" fill="white"/>
<path d="M65.9479 131.896H57.7044V140.139H65.9479V131.896Z" fill="white"/>
<path d="M98.9219 131.896H90.6784V140.139H98.9219V131.896Z" fill="white"/>
<path d="M107.165 131.896H98.9219V140.139H107.165V131.896Z" fill="white"/>
<path d="M131.896 131.896H123.652V140.139H131.896V131.896Z" fill="white"/>
<path d="M140.139 131.896H131.896V140.139H140.139V131.896Z" fill="white"/>
<path d="M148.383 131.896H140.139V140.139H148.383V131.896Z" fill="white"/>
<path d="M173.113 131.896H164.87V140.139H173.113V131.896Z" fill="white"/>
<path d="M197.844 131.896H189.6V140.139H197.844V131.896Z" fill="white"/>
<path d="M206.087 131.896H197.844V140.139H206.087V131.896Z" fill="white"/>
<path d="M214.331 131.896H206.087V140.139H214.331V131.896Z" fill="white"/>
<path d="M230.818 131.896H222.574V140.139H230.818V131.896Z" fill="white"/>
<path d="M255.548 131.896H247.305V140.139H255.548V131.896Z" fill="white"/>
<path d="M263.792 131.896H255.548V140.139H263.792V131.896Z" fill="white"/>
<path d="M272.035 131.896H263.792V140.139H272.035V131.896Z" fill="white"/>
<path d="M8.24349 140.139H0V148.383H8.24349V140.139Z" fill="white"/>
<path d="M24.7305 140.139H16.487V148.383H24.7305V140.139Z" fill="white"/>
<path d="M49.4609 140.139H41.2175V148.383H49.4609V140.139Z" fill="white"/>
<path d="M65.9479 140.139H57.7044V148.383H65.9479V140.139Z" fill="white"/>
<path d="M74.1914 140.139H65.9479V148.383H74.1914V140.139Z" fill="white"/>
<path d="M90.6784 140.139H82.4349V148.383H90.6784V140.139Z" fill="white"/>
<path d="M115.409 140.139H107.165V148.383H115.409V140.139Z" fill="white"/>
<path d="M123.652 140.139H115.409V148.383H123.652V140.139Z" fill="white"/>
<path d="M131.896 140.139H123.652V148.383H131.896V140.139Z" fill="white"/>
<path d="M148.383 140.139H140.139V148.383H148.383V140.139Z" fill="white"/>
<path d="M164.87 140.139H156.626V148.383H164.87V140.139Z" fill="white"/>
<path d="M181.357 140.139H173.113V148.383H181.357V140.139Z" fill="white"/>
<path d="M189.6 140.139H181.357V148.383H189.6V140.139Z" fill="white"/>
<path d="M214.331 140.139H206.087V148.383H214.331V140.139Z" fill="white"/>
<path d="M222.574 140.139H214.331V148.383H222.574V140.139Z" fill="white"/>
<path d="M239.061 140.139H230.818V148.383H239.061V140.139Z" fill="white"/>
<path d="M255.548 140.139H247.305V148.383H255.548V140.139Z" fill="white"/>
<path d="M8.24349 148.383H0V156.626H8.24349V148.383Z" fill="white"/>
<path d="M16.487 148.383H8.24349V156.626H16.487V148.383Z" fill="white"/>
<path d="M49.4609 148.383H41.2175V156.626H49.4609V148.383Z" fill="white"/>
<path d="M57.7044 148.383H49.4609V156.626H57.7044V148.383Z" fill="white"/>
<path d="M74.1914 148.383H65.9479V156.626H74.1914V148.383Z" fill="white"/>
<path d="M82.4349 148.383H74.1914V156.626H82.4349V148.383Z" fill="white"/>
<path d="M98.9219 148.383H90.6784V156.626H98.9219V148.383Z" fill="white"/>
<path d="M107.165 148.383H98.9219V156.626H107.165V148.383Z" fill="white"/>
<path d="M115.409 148.383H107.165V156.626H115.409V148.383Z" fill="white"/>
<path d="M123.652 148.383H115.409V156.626H123.652V148.383Z" fill="white"/>
<path d="M148.383 148.383H140.139V156.626H148.383V148.383Z" fill="white"/>
<path d="M156.626 148.383H148.383V156.626H156.626L156.626 148.383Z" fill="white"/>
<path d="M173.113 148.383H164.87V156.626H173.113V148.383Z" fill="white"/>
<path d="M189.6 148.383H181.357V156.626H189.6V148.383Z" fill="white"/>
<path d="M214.331 148.383H206.087V156.626H214.331V148.383Z" fill="white"/>
<path d="M222.574 148.383H214.331V156.626H222.574V148.383Z" fill="white"/>
<path d="M239.061 148.383H230.818V156.626H239.061V148.383Z" fill="white"/>
<path d="M247.305 148.383H239.061V156.626H247.305V148.383Z" fill="white"/>
<path d="M255.548 148.383H247.305V156.626H255.548V148.383Z" fill="white"/>
<path d="M272.035 148.383H263.792V156.626H272.035V148.383Z" fill="white"/>
<path d="M8.24349 156.626H0V164.87H8.24349V156.626Z" fill="white"/>
<path d="M24.7305 156.626L16.487 156.626V164.87H24.7305V156.626Z" fill="white"/>
<path d="M49.4609 156.626H41.2175V164.87H49.4609V156.626Z" fill="white"/>
<path d="M74.1914 156.626H65.9479V164.87H74.1914V156.626Z" fill="white"/>
<path d="M82.4349 156.626H74.1914V164.87H82.4349V156.626Z" fill="white"/>
<path d="M107.165 156.626H98.9219V164.87H107.165V156.626Z" fill="white"/>
<path d="M131.896 156.626L123.652 156.626V164.87H131.896V156.626Z" fill="white"/>
<path d="M140.139 156.626L131.896 156.626V164.87H140.139V156.626Z" fill="white"/>
<path d="M197.844 156.626L189.6 156.626V164.87H197.844V156.626Z" fill="white"/>
<path d="M214.331 156.626H206.087V164.87H214.331V156.626Z" fill="white"/>
<path d="M222.574 156.626H214.331V164.87H222.574V156.626Z" fill="white"/>
<path d="M239.061 156.626H230.818V164.87H239.061V156.626Z" fill="white"/>
<path d="M247.305 156.626H239.061V164.87H247.305V156.626Z" fill="white"/>
<path d="M255.548 156.626H247.305V164.87H255.548V156.626Z" fill="white"/>
<path d="M263.792 156.626H255.548V164.87H263.792V156.626Z" fill="white"/>
<path d="M24.7305 164.87H16.487V173.113H24.7305V164.87Z" fill="white"/>
<path d="M32.974 164.87H24.7305V173.113H32.974V164.87Z" fill="white"/>
<path d="M41.2175 164.87H32.974V173.113H41.2175V164.87Z" fill="white"/>
<path d="M49.4609 164.87H41.2175V173.113H49.4609V164.87Z" fill="white"/>
<path d="M57.7044 164.87H49.4609V173.113H57.7044V164.87Z" fill="white"/>
<path d="M65.9479 164.87H57.7044V173.113H65.9479V164.87Z" fill="white"/>
<path d="M82.4349 164.87H74.1914V173.113H82.4349V164.87Z" fill="white"/>
<path d="M90.6784 164.87H82.4349V173.113H90.6784V164.87Z" fill="white"/>
<path d="M98.9219 164.87H90.6784V173.113H98.9219V164.87Z" fill="white"/>
<path d="M131.896 164.87H123.652V173.113H131.896V164.87Z" fill="white"/>
<path d="M140.139 164.87H131.896V173.113H140.139V164.87Z" fill="white"/>
<path d="M148.383 164.87H140.139V173.113H148.383V164.87Z" fill="white"/>
<path d="M156.626 164.87H148.383V173.113H156.626V164.87Z" fill="white"/>
<path d="M164.87 164.87H156.626V173.113H164.87V164.87Z" fill="white"/>
<path d="M173.113 164.87H164.87V173.113H173.113V164.87Z" fill="white"/>
<path d="M230.818 164.87H222.574V173.113H230.818V164.87Z" fill="white"/>
<path d="M239.061 164.87H230.818V173.113H239.061V164.87Z" fill="white"/>
<path d="M247.305 164.87H239.061V173.113H247.305V164.87Z" fill="white"/>
<path d="M8.24349 173.113H0V181.357H8.24349V173.113Z" fill="white"/>
<path d="M16.487 173.113H8.24349V181.357H16.487V173.113Z" fill="white"/>
<path d="M41.2175 173.113H32.974V181.357H41.2175V173.113Z" fill="white"/>
<path d="M74.1914 173.113H65.9479V181.357H74.1914V173.113Z" fill="white"/>
<path d="M82.4349 173.113H74.1914V181.357H82.4349V173.113Z" fill="white"/>
<path d="M90.6784 173.113H82.4349V181.357H90.6784V173.113Z" fill="white"/>
<path d="M107.165 173.113H98.9219V181.357H107.165V173.113Z" fill="white"/>
<path d="M131.896 173.113H123.652V181.357H131.896V173.113Z" fill="white"/>
<path d="M140.139 173.113H131.896V181.357H140.139V173.113Z" fill="white"/>
<path d="M148.383 173.113H140.139V181.357H148.383V173.113Z" fill="white"/>
<path d="M164.87 173.113H156.626L156.626 181.357H164.87V173.113Z" fill="white"/>
<path d="M181.357 173.113H173.113V181.357H181.357V173.113Z" fill="white"/>
<path d="M189.6 173.113H181.357V181.357H189.6V173.113Z" fill="white"/>
<path d="M230.818 173.113H222.574V181.357H230.818V173.113Z" fill="white"/>
<path d="M247.305 173.113H239.061V181.357H247.305V173.113Z" fill="white"/>
<path d="M255.548 173.113H247.305V181.357H255.548V173.113Z" fill="white"/>
<path d="M272.035 173.113H263.792V181.357H272.035V173.113Z" fill="white"/>
<path d="M16.487 181.357H8.24349V189.6H16.487V181.357Z" fill="white"/>
<path d="M32.974 181.357H24.7305V189.6H32.974V181.357Z" fill="white"/>
<path d="M41.2175 181.357H32.974V189.6H41.2175V181.357Z" fill="white"/>
<path d="M49.4609 181.357H41.2175V189.6H49.4609V181.357Z" fill="white"/>
<path d="M57.7044 181.357H49.4609V189.6H57.7044V181.357Z" fill="white"/>
<path d="M82.4349 181.357H74.1914V189.6H82.4349V181.357Z" fill="white"/>
<path d="M131.896 181.357H123.652V189.6H131.896V181.357Z" fill="white"/>
<path d="M140.139 181.357H131.896V189.6H140.139V181.357Z" fill="white"/>
<path d="M156.626 181.357H148.383V189.6H156.626L156.626 181.357Z" fill="white"/>
<path d="M206.087 181.357H197.844V189.6H206.087V181.357Z" fill="white"/>
<path d="M222.574 181.357H214.331V189.6H222.574V181.357Z" fill="white"/>
<path d="M230.818 181.357H222.574V189.6H230.818V181.357Z" fill="white"/>
<path d="M8.24349 189.6H0V197.844H8.24349V189.6Z" fill="white"/>
<path d="M16.487 189.6H8.24349V197.844H16.487V189.6Z" fill="white"/>
<path d="M24.7305 189.6H16.487V197.844H24.7305V189.6Z" fill="white"/>
<path d="M32.974 189.6H24.7305V197.844H32.974V189.6Z" fill="white"/>
<path d="M65.9479 189.6H57.7044V197.844H65.9479V189.6Z" fill="white"/>
<path d="M82.4349 189.6H74.1914V197.844H82.4349V189.6Z" fill="white"/>
<path d="M90.6784 189.6H82.4349V197.844H90.6784V189.6Z" fill="white"/>
<path d="M98.9219 189.6H90.6784V197.844H98.9219V189.6Z" fill="white"/>
<path d="M131.896 189.6H123.652V197.844H131.896V189.6Z" fill="white"/>
<path d="M148.383 189.6H140.139V197.844H148.383V189.6Z" fill="white"/>
<path d="M164.87 189.6H156.626L156.626 197.844H164.87V189.6Z" fill="white"/>
<path d="M181.357 189.6H173.113V197.844H181.357V189.6Z" fill="white"/>
<path d="M189.6 189.6H181.357V197.844H189.6V189.6Z" fill="white"/>
<path d="M206.087 189.6H197.844V197.844H206.087V189.6Z" fill="white"/>
<path d="M222.574 189.6H214.331V197.844H222.574V189.6Z" fill="white"/>
<path d="M230.818 189.6H222.574V197.844H230.818V189.6Z" fill="white"/>
<path d="M239.061 189.6H230.818V197.844H239.061V189.6Z" fill="white"/>
<path d="M247.305 189.6H239.061V197.844H247.305V189.6Z" fill="white"/>
<path d="M263.792 189.6H255.548V197.844H263.792V189.6Z" fill="white"/>
<path d="M24.7305 197.844H16.487V206.087H24.7305V197.844Z" fill="white"/>
<path d="M41.2175 197.844H32.974V206.087H41.2175V197.844Z" fill="white"/>
<path d="M49.4609 197.844H41.2175V206.087H49.4609V197.844Z" fill="white"/>
<path d="M57.7044 197.844H49.4609V206.087H57.7044V197.844Z" fill="white"/>
<path d="M65.9479 197.844H57.7044V206.087H65.9479V197.844Z" fill="white"/>
<path d="M82.4349 197.844H74.1914V206.087H82.4349V197.844Z" fill="white"/>
<path d="M90.6784 197.844H82.4349V206.087H90.6784V197.844Z" fill="white"/>
<path d="M107.165 197.844H98.9219V206.087H107.165V197.844Z" fill="white"/>
<path d="M115.409 197.844H107.165V206.087H115.409V197.844Z" fill="white"/>
<path d="M140.139 197.844H131.896V206.087H140.139V197.844Z" fill="white"/>
<path d="M148.383 197.844H140.139V206.087H148.383V197.844Z" fill="white"/>
<path d="M156.626 197.844H148.383V206.087H156.626L156.626 197.844Z" fill="white"/>
<path d="M189.6 197.844H181.357V206.087H189.6V197.844Z" fill="white"/>
<path d="M197.844 197.844H189.6V206.087H197.844V197.844Z" fill="white"/>
<path d="M206.087 197.844H197.844V206.087H206.087V197.844Z" fill="white"/>
<path d="M214.331 197.844H206.087V206.087H214.331V197.844Z" fill="white"/>
<path d="M222.574 197.844H214.331V206.087H222.574V197.844Z" fill="white"/>
<path d="M230.818 197.844H222.574V206.087H230.818V197.844Z" fill="white"/>
<path d="M239.061 197.844H230.818V206.087H239.061V197.844Z" fill="white"/>
<path d="M263.792 197.844H255.548V206.087H263.792V197.844Z" fill="white"/>
<path d="M90.6784 206.087H82.4349V214.331H90.6784V206.087Z" fill="white"/>
<path d="M107.165 206.087H98.9219V214.331H107.165V206.087Z" fill="white"/>
<path d="M131.896 206.087H123.652V214.331H131.896V206.087Z" fill="white"/>
<path d="M140.139 206.087H131.896V214.331H140.139V206.087Z" fill="white"/>
<path d="M164.87 206.087H156.626L156.626 214.331H164.87V206.087Z" fill="white"/>
<path d="M181.357 206.087H173.113V214.331H181.357V206.087Z" fill="white"/>
<path d="M189.6 206.087H181.357V214.331H189.6V206.087Z" fill="white"/>
<path d="M197.844 206.087H189.6V214.331H197.844V206.087Z" fill="white"/>
<path d="M206.087 206.087H197.844V214.331H206.087V206.087Z" fill="white"/>
<path d="M239.061 206.087H230.818V214.331H239.061V206.087Z" fill="white"/>
<path d="M272.035 206.087H263.792V214.331H272.035V206.087Z" fill="white"/>
<path d="M8.24349 214.331H0V222.574H8.24349V214.331Z" fill="white"/>
<path d="M16.487 214.331H8.24349V222.574H16.487V214.331Z" fill="white"/>
<path d="M24.7305 214.331H16.487V222.574H24.7305V214.331Z" fill="white"/>
<path d="M32.974 214.331H24.7305V222.574H32.974V214.331Z" fill="white"/>
<path d="M41.2175 214.331H32.974V222.574H41.2175V214.331Z" fill="white"/>
<path d="M49.4609 214.331H41.2175V222.574H49.4609V214.331Z" fill="white"/>
<path d="M57.7044 214.331H49.4609V222.574H57.7044V214.331Z" fill="white"/>
<path d="M82.4349 214.331H74.1914V222.574H82.4349V214.331Z" fill="white"/>
<path d="M98.9219 214.331H90.6784V222.574H98.9219V214.331Z" fill="white"/>
<path d="M123.652 214.331H115.409V222.574H123.652V214.331Z" fill="white"/>
<path d="M131.896 214.331H123.652V222.574H131.896V214.331Z" fill="white"/>
<path d="M140.139 214.331H131.896V222.574H140.139V214.331Z" fill="white"/>
<path d="M148.383 214.331H140.139V222.574H148.383V214.331Z" fill="white"/>
<path d="M164.87 214.331H156.626V222.574H164.87V214.331Z" fill="white"/>
<path d="M181.357 214.331H173.113V222.574H181.357V214.331Z" fill="white"/>
<path d="M189.6 214.331H181.357V222.574H189.6V214.331Z" fill="white"/>
<path d="M206.087 214.331H197.844V222.574H206.087V214.331Z" fill="white"/>
<path d="M222.574 214.331H214.331V222.574H222.574V214.331Z" fill="white"/>
<path d="M239.061 214.331H230.818V222.574H239.061V214.331Z" fill="white"/>
<path d="M255.548 214.331H247.305V222.574H255.548V214.331Z" fill="white"/>
<path d="M263.792 214.331H255.548V222.574H263.792V214.331Z" fill="white"/>
<path d="M272.035 214.331H263.792V222.574H272.035V214.331Z" fill="white"/>
<path d="M8.24349 222.574H0V230.818H8.24349V222.574Z" fill="white"/>
<path d="M57.7044 222.574H49.4609V230.818H57.7044V222.574Z" fill="white"/>
<path d="M82.4349 222.574H74.1914V230.818H82.4349V222.574Z" fill="white"/>
<path d="M90.6784 222.574H82.4349V230.818H90.6784V222.574Z" fill="white"/>
<path d="M98.9219 222.574H90.6784V230.818H98.9219V222.574Z" fill="white"/>
<path d="M107.165 222.574H98.9219V230.818H107.165V222.574Z" fill="white"/>
<path d="M115.409 222.574H107.165V230.818H115.409V222.574Z" fill="white"/>
<path d="M131.896 222.574H123.652V230.818H131.896V222.574Z" fill="white"/>
<path d="M156.626 222.574H148.383V230.818H156.626L156.626 222.574Z" fill="white"/>
<path d="M173.113 222.574H164.87V230.818H173.113V222.574Z" fill="white"/>
<path d="M189.6 222.574H181.357V230.818H189.6V222.574Z" fill="white"/>
<path d="M197.844 222.574H189.6V230.818H197.844V222.574Z" fill="white"/>
<path d="M206.087 222.574H197.844V230.818H206.087V222.574Z" fill="white"/>
<path d="M239.061 222.574H230.818V230.818H239.061V222.574Z" fill="white"/>
<path d="M247.305 222.574H239.061V230.818H247.305V222.574Z" fill="white"/>
<path d="M255.548 222.574H247.305V230.818H255.548V222.574Z" fill="white"/>
<path d="M263.792 222.574H255.548V230.818H263.792V222.574Z" fill="white"/>
<path d="M8.24349 230.818H0V239.061H8.24349V230.818Z" fill="white"/>
<path d="M24.7305 230.818H16.487V239.061H24.7305V230.818Z" fill="white"/>
<path d="M32.974 230.818H24.7305V239.061H32.974V230.818Z" fill="white"/>
<path d="M41.2175 230.818H32.974V239.061H41.2175V230.818Z" fill="white"/>
<path d="M57.7044 230.818H49.4609V239.061H57.7044V230.818Z" fill="white"/>
<path d="M90.6784 230.818H82.4349V239.061H90.6784V230.818Z" fill="white"/>
<path d="M107.165 230.818H98.9219V239.061H107.165V230.818Z" fill="white"/>
<path d="M140.139 230.818H131.896V239.061H140.139V230.818Z" fill="white"/>
<path d="M148.383 230.818H140.139V239.061H148.383V230.818Z" fill="white"/>
<path d="M156.626 230.818H148.383V239.061H156.626V230.818Z" fill="white"/>
<path d="M164.87 230.818H156.626V239.061H164.87V230.818Z" fill="white"/>
<path d="M189.6 230.818H181.357V239.061H189.6V230.818Z" fill="white"/>
<path d="M206.087 230.818H197.844V239.061H206.087V230.818Z" fill="white"/>
<path d="M214.331 230.818H206.087V239.061H214.331V230.818Z" fill="white"/>
<path d="M222.574 230.818H214.331V239.061H222.574V230.818Z" fill="white"/>
<path d="M230.818 230.818H222.574V239.061H230.818V230.818Z" fill="white"/>
<path d="M239.061 230.818H230.818V239.061H239.061V230.818Z" fill="white"/>
<path d="M263.792 230.818H255.548V239.061H263.792V230.818Z" fill="white"/>
<path d="M272.035 230.818H263.792V239.061H272.035V230.818Z" fill="white"/>
<path d="M8.24349 239.061H0V247.305H8.24349V239.061Z" fill="white"/>
<path d="M24.7305 239.061H16.487V247.305H24.7305V239.061Z" fill="white"/>
<path d="M32.974 239.061H24.7305V247.305H32.974V239.061Z" fill="white"/>
<path d="M41.2175 239.061H32.974V247.305H41.2175V239.061Z" fill="white"/>
<path d="M57.7044 239.061H49.4609V247.305H57.7044V239.061Z" fill="white"/>
<path d="M82.4349 239.061H74.1914V247.305H82.4349V239.061Z" fill="white"/>
<path d="M90.6784 239.061H82.4349V247.305H90.6784V239.061Z" fill="white"/>
<path d="M98.9219 239.061H90.6784V247.305H98.9219V239.061Z" fill="white"/>
<path d="M107.165 239.061H98.9219V247.305H107.165V239.061Z" fill="white"/>
<path d="M123.652 239.061H115.409V247.305H123.652V239.061Z" fill="white"/>
<path d="M131.896 239.061H123.652V247.305H131.896V239.061Z" fill="white"/>
<path d="M148.383 239.061H140.139V247.305H148.383V239.061Z" fill="white"/>
<path d="M173.113 239.061H164.87V247.305H173.113V239.061Z" fill="white"/>
<path d="M181.357 239.061H173.113V247.305H181.357V239.061Z" fill="white"/>
<path d="M189.6 239.061H181.357V247.305H189.6V239.061Z" fill="white"/>
<path d="M197.844 239.061H189.6V247.305H197.844V239.061Z" fill="white"/>
<path d="M214.331 239.061H206.087V247.305H214.331V239.061Z" fill="white"/>
<path d="M230.818 239.061H222.574V247.305H230.818V239.061Z" fill="white"/>
<path d="M247.305 239.061H239.061V247.305H247.305V239.061Z" fill="white"/>
<path d="M255.548 239.061H247.305V247.305H255.548V239.061Z" fill="white"/>
<path d="M263.792 239.061H255.548V247.305H263.792V239.061Z" fill="white"/>
<path d="M8.24349 247.305H0V255.548H8.24349V247.305Z" fill="white"/>
<path d="M24.7305 247.305H16.487V255.548H24.7305V247.305Z" fill="white"/>
<path d="M32.974 247.305H24.7305V255.548H32.974V247.305Z" fill="white"/>
<path d="M41.2175 247.305H32.974V255.548H41.2175V247.305Z" fill="white"/>
<path d="M57.7044 247.305H49.4609V255.548H57.7044V247.305Z" fill="white"/>
<path d="M74.1914 247.305H65.9479V255.548H74.1914V247.305Z" fill="white"/>
<path d="M82.4349 247.305H74.1914V255.548H82.4349V247.305Z" fill="white"/>
<path d="M115.409 247.305H107.165V255.548H115.409V247.305Z" fill="white"/>
<path d="M123.652 247.305H115.409V255.548H123.652V247.305Z" fill="white"/>
<path d="M131.896 247.305H123.652V255.548H131.896V247.305Z" fill="white"/>
<path d="M140.139 247.305H131.896V255.548H140.139V247.305Z" fill="white"/>
<path d="M156.626 247.305H148.383V255.548H156.626V247.305Z" fill="white"/>
<path d="M173.113 247.305H164.87V255.548H173.113V247.305Z" fill="white"/>
<path d="M181.357 247.305H173.113V255.548H181.357V247.305Z" fill="white"/>
<path d="M230.818 247.305H222.574V255.548H230.818V247.305Z" fill="white"/>
<path d="M239.061 247.305H230.818V255.548H239.061V247.305Z" fill="white"/>
<path d="M247.305 247.305H239.061V255.548H247.305V247.305Z" fill="white"/>
<path d="M272.035 247.305H263.792V255.548H272.035V247.305Z" fill="white"/>
<path d="M8.24349 255.548H0V263.792H8.24349V255.548Z" fill="white"/>
<path d="M57.7044 255.548H49.4609V263.792H57.7044V255.548Z" fill="white"/>
<path d="M74.1914 255.548H65.9479V263.792H74.1914V255.548Z" fill="white"/>
<path d="M98.9219 255.548H90.6784V263.792H98.9219V255.548Z" fill="white"/>
<path d="M115.409 255.548H107.165V263.792H115.409V255.548Z" fill="white"/>
<path d="M156.626 255.548H148.383V263.792H156.626V255.548Z" fill="white"/>
<path d="M173.113 255.548H164.87V263.792H173.113V255.548Z" fill="white"/>
<path d="M189.6 255.548H181.357V263.792H189.6V255.548Z" fill="white"/>
<path d="M197.844 255.548H189.6V263.792H197.844V255.548Z" fill="white"/>
<path d="M206.087 255.548H197.844V263.792H206.087V255.548Z" fill="white"/>
<path d="M214.331 255.548H206.087V263.792H214.331V255.548Z" fill="white"/>
<path d="M230.818 255.548H222.574V263.792H230.818V255.548Z" fill="white"/>
<path d="M247.305 255.548H239.061V263.792H247.305V255.548Z" fill="white"/>
<path d="M8.24349 263.792H0V272.035H8.24349V263.792Z" fill="white"/>
<path d="M16.487 263.792H8.24349V272.035H16.487V263.792Z" fill="white"/>
<path d="M24.7305 263.792H16.487V272.035H24.7305V263.792Z" fill="white"/>
<path d="M32.974 263.792H24.7305V272.035H32.974V263.792Z" fill="white"/>
<path d="M41.2175 263.792H32.974V272.035H41.2175V263.792Z" fill="white"/>
<path d="M49.4609 263.792H41.2175V272.035H49.4609V263.792Z" fill="white"/>
<path d="M57.7044 263.792H49.4609V272.035H57.7044V263.792Z" fill="white"/>
<path d="M82.4349 263.792H74.1914V272.035H82.4349V263.792Z" fill="white"/>
<path d="M90.6784 263.792H82.4349V272.035H90.6784V263.792Z" fill="white"/>
<path d="M148.383 263.792H140.139V272.035H148.383V263.792Z" fill="white"/>
<path d="M164.87 263.792H156.626L156.626 272.035H164.87V263.792Z" fill="white"/>
<path d="M181.357 263.792H173.113V272.035H181.357V263.792Z" fill="white"/>
<path d="M189.6 263.792H181.357V272.035H189.6V263.792Z" fill="white"/>
<path d="M197.844 263.792H189.6V272.035H197.844V263.792Z" fill="white"/>
<path d="M239.061 263.792H230.818V272.035H239.061V263.792Z" fill="white"/>
<path d="M247.305 263.792H239.061V272.035H247.305V263.792Z" fill="white"/>
<path d="M263.792 263.792H255.548V272.035H263.792V263.792Z" fill="white"/>
</svg>
